<?xml version="1.0" standalone="no"?>
<!DOCTYPE svg PUBLIC "-//W3C//DTD SVG 20010904//EN"
 "http://www.w3.org/TR/2001/REC-SVG-20010904/DTD/svg10.dtd">
<svg version="1.0" xmlns="http://www.w3.org/2000/svg"
 width="625.000000pt" height="625.000000pt" viewBox="0 0 625.000000 625.000000"
 preserveAspectRatio="xMidYMid meet">
<metadata>
Created by potrace 1.14, written by Peter Selinger 2001-2017
</metadata>
<g transform="translate(0.000000,625.000000) scale(0.100000,-0.100000)"
fill="#000000" stroke="none">
<path d="M1390 4567 c0 -68 3 -191 6 -273 l7 -150 477 4 477 4 6 -113 c4 -63
7 -190 7 -284 l0 -170 37 70 c57 112 110 184 197 270 122 120 236 180 410 216
105 22 159 18 254 -18 l63 -23 -6 21 c-6 16 -4 20 6 13 81 -48 151 -141 181
-238 26 -87 21 -158 -22 -281 -44 -123 -121 -286 -133 -282 -12 4 -14 57 -3
75 4 7 4 12 -1 11 -4 0 -30 -29 -58 -65 -83 -109 -261 -274 -355 -331 -127
-76 -172 -88 -320 -88 -112 0 -130 3 -170 24 -25 13 -52 30 -61 37 -15 13 -16
-42 -18 -676 l-2 -690 88 0 c48 -1 118 -2 155 -3 l68 -2 2 178 3 178 85 -61
c201 -144 397 -219 683 -260 198 -29 376 -23 532 16 99 25 236 98 309 166 61
56 102 109 91 120 -3 2 -5 46 -6 98 -1 58 -4 88 -10 79 -6 -9 -7 -1 -2 20 5
29 4 33 -10 28 -13 -5 -15 -2 -7 18 16 43 -9 48 -80 14 -35 -16 -69 -28 -75
-25 -10 4 -12 39 -4 76 5 20 -13 17 -89 -15 -88 -37 -177 -54 -318 -61 -282
-16 -636 66 -858 198 l-69 41 101 47 c122 58 173 92 265 179 200 188 336 460
397 794 21 118 40 338 28 331 -6 -4 -23 37 -19 45 2 2 -1 7 -6 10 -18 13 -34
53 -29 74 3 12 3 16 0 9 -8 -17 -24 -5 -24 17 0 10 -6 24 -14 30 -13 11 -39
86 -36 105 1 5 -2 12 -7 15 -12 8 -93 182 -188 401 -20 47 -44 100 -53 118 -9
19 -16 42 -15 51 1 10 -4 19 -10 20 -7 1 -427 5 -934 8 l-923 5 0 -125z"/>
<path d="M2103 4014 c-31 -14 -53 -30 -53 -39 0 -15 90 -65 118 -65 17 0 15
17 -3 24 -9 3 -15 18 -15 40 0 21 6 36 15 40 18 7 20 26 3 25 -7 0 -37 -11
-65 -25z m27 -45 c0 -11 -3 -18 -7 -16 -5 2 -17 7 -28 11 -16 6 -17 9 -5 16
24 16 40 11 40 -11z"/>
<path d="M2050 3865 c0 -12 13 -15 66 -15 48 0 65 3 62 13 -3 7 -28 13 -66 15
-51 2 -62 0 -62 -13z"/>
<path d="M2067 3792 c-10 -11 -17 -36 -17 -60 l0 -42 66 0 67 0 -5 45 c-3 25
-11 52 -18 60 -17 21 -73 19 -93 -3z m86 -33 c18 -29 1 -49 -43 -49 -37 0 -40
2 -40 28 0 16 3 32 7 36 12 12 66 2 76 -15z"/>
<path d="M2158 3608 c-2 -31 -8 -44 -20 -46 -15 -3 -18 4 -18 37 0 23 -4 41
-10 41 -5 0 -10 -18 -10 -40 0 -29 -4 -40 -15 -40 -11 0 -15 11 -15 40 0 22
-4 40 -10 40 -5 0 -10 -22 -10 -50 l0 -50 65 0 65 0 0 49 c0 62 -18 77 -22 19z"/>
<path d="M2057 3494 c-19 -20 -5 -42 36 -54 l42 -13 -42 -14 c-31 -10 -43 -20
-43 -34 0 -17 8 -19 65 -19 37 0 65 4 65 10 0 6 -21 10 -47 11 l-48 0 44 17
c61 23 62 39 4 54 l-48 13 45 5 c25 3 44 10 43 15 -3 12 -105 19 -116 9z"/>
<path d="M2123 3263 c-7 -2 -17 -22 -23 -44 -11 -40 -26 -50 -37 -24 -3 9 2
24 11 34 13 14 14 21 6 26 -29 18 -42 -72 -15 -95 20 -17 42 2 53 44 5 17 15
31 22 31 22 0 24 -34 4 -56 -19 -22 -15 -33 10 -23 23 9 32 53 15 83 -15 26
-27 32 -46 24z"/>
<path d="M2067 3102 c-10 -11 -17 -36 -17 -61 l0 -42 63 3 62 3 -1 44 c-1 30
-7 48 -19 58 -26 19 -69 16 -88 -5z m81 -24 c7 -7 12 -22 12 -35 0 -21 -5 -23
-45 -23 -43 0 -45 1 -45 28 0 16 3 32 7 35 11 11 58 8 71 -5z"/>
<path d="M2103 2934 c-29 -14 -53 -32 -53 -39 0 -15 88 -65 115 -65 19 0 20
16 0 24 -9 3 -15 18 -15 40 0 21 6 36 15 40 18 7 20 26 3 25 -7 0 -37 -12 -65
-25z m27 -44 c0 -23 -4 -24 -32 -9 -17 9 -18 13 -7 20 23 15 39 10 39 -11z"/>
<path d="M2050 2685 c0 -42 4 -64 10 -60 6 3 10 15 10 26 0 16 7 19 55 19 42
0 55 3 55 15 0 12 -13 15 -55 15 -48 0 -55 3 -55 19 0 11 -4 23 -10 26 -6 4
-10 -18 -10 -60z"/>
<path d="M2050 2586 c0 -10 13 -16 42 -18 l42 -3 -42 -28 c-63 -41 -56 -57 23
-57 75 0 89 17 18 22 l-48 3 48 34 c26 19 46 39 44 45 -2 6 -31 12 -65 14 -50
2 -62 0 -62 -12z"/>
<path d="M2160 2397 c0 -40 -3 -47 -20 -47 -17 0 -20 7 -20 40 0 22 -4 40 -10
40 -5 0 -10 -18 -10 -40 0 -29 -4 -40 -15 -40 -11 0 -15 11 -15 40 0 22 -4 40
-10 40 -5 0 -10 -23 -10 -50 l0 -51 63 3 62 3 3 44 c2 24 -2 49 -7 54 -8 8
-11 -3 -11 -36z"/>
<path d="M2052 2278 c2 -6 23 -18 46 -27 23 -8 42 -18 42 -21 0 -3 -19 -13
-42 -21 -39 -14 -64 -39 -39 -39 21 0 121 49 121 60 0 11 -100 60 -121 60 -6
0 -9 -5 -7 -12z"/>
<path d="M2050 2126 c0 -10 13 -16 42 -18 l42 -3 -42 -28 c-63 -41 -56 -57 23
-57 75 0 89 17 18 22 l-48 3 48 33 c26 19 46 39 44 45 -2 7 -30 13 -65 15 -50
2 -62 0 -62 -12z"/>
<path d="M2050 1965 c0 -12 13 -15 66 -15 48 0 65 3 62 13 -3 7 -28 13 -66 15
-51 2 -62 0 -62 -13z"/>
<path d="M2160 1867 c0 -40 -3 -47 -20 -47 -17 0 -20 7 -20 40 0 22 -4 40 -10
40 -5 0 -10 -18 -10 -40 0 -29 -4 -40 -15 -40 -11 0 -15 11 -15 40 0 22 -4 40
-10 40 -5 0 -10 -23 -10 -50 l0 -51 63 3 62 3 3 44 c2 24 -2 49 -7 54 -8 8
-11 -3 -11 -36z"/>
<path d="M2057 1753 c-4 -3 -7 -28 -7 -55 l0 -48 65 0 c37 0 65 4 65 10 0 6
-13 10 -30 10 -23 0 -30 5 -30 19 0 11 13 28 30 38 17 9 30 21 30 25 0 13 -24
9 -47 -7 -19 -13 -22 -13 -27 0 -5 15 -37 20 -49 8z m43 -54 c0 -19 -5 -29
-15 -29 -15 0 -22 50 -9 63 12 12 24 -4 24 -34z"/>
</g>
</svg>
